<?xml version="1.0" standalone="no"?>
<!DOCTYPE svg PUBLIC "-//W3C//DTD SVG 20010904//EN"
 "http://www.w3.org/TR/2001/REC-SVG-20010904/DTD/svg10.dtd">
<svg version="1.0" xmlns="http://www.w3.org/2000/svg"
 width="1366.000000pt" height="822.000000pt" viewBox="0 0 1366.000000 822.000000"
 preserveAspectRatio="xMidYMid meet">

<g transform="translate(0.000000,822.000000) scale(0.100000,-0.100000)"
fill="#000000" stroke="none">
<path d="M5625 7484 c-427 -55 -636 -98 -654 -133 -18 -32 31 -104 87 -128 45
-19 67 -60 97 -182 20 -87 167 -944 190 -1112 10 -78 -7 -127 -64 -179 -58
-53 -61 -71 -31 -139 26 -57 20 -64 -89 -98 -282 -87 -816 -312 -900 -380
l-23 -19 27 -54 c34 -68 75 -130 86 -130 4 0 76 32 161 71 470 219 847 344
1328 438 494 97 1066 117 1595 56 562 -65 1199 -252 1675 -490 117 -59 176
-78 200 -65 11 6 36 45 56 87 l37 76 -24 20 c-13 11 -137 76 -276 143 -234
115 -273 137 -260 150 3 3 44 12 93 19 96 16 167 37 229 68 325 162 546 567
548 1002 1 159 -13 229 -65 328 -70 131 -174 216 -378 308 -179 80 -754 299
-787 299 -22 0 -73 -80 -73 -115 0 -18 12 -58 26 -90 23 -51 26 -66 20 -124
-21 -224 -328 -1097 -412 -1173 -11 -9 -45 -26 -77 -38 -68 -25 -86 -53 -94
-142 -5 -53 -8 -59 -32 -65 -14 -4 -71 -1 -126 5 -55 7 -175 21 -266 32 -92
10 -267 24 -390 30 -123 6 -238 13 -256 16 l-32 5 6 77 6 78 -48 24 c-74 38
-126 90 -275 274 -76 94 -173 209 -215 256 -42 47 -80 92 -85 101 -7 12 2 31
36 75 184 239 179 228 179 374 0 137 -18 204 -80 294 -46 67 -113 118 -188
142 -71 23 -335 28 -482 8z m167 -195 c114 -24 218 -102 265 -196 56 -115 27
-248 -76 -350 -51 -50 -150 -109 -225 -133 -48 -15 -126 -16 -154 -1 -34 18
-60 117 -127 479 -13 71 -13 88 -1 116 15 35 60 73 104 86 40 12 154 12 214
-1z m3185 -268 c227 -110 327 -188 357 -279 46 -138 35 -436 -23 -604 -39
-114 -134 -278 -197 -342 -55 -55 -142 -104 -217 -121 -94 -22 -250 -22 -347
0 -174 40 -188 72 -124 281 86 283 364 1057 391 1086 25 28 72 22 160 -21z
m-3066 -607 c77 -35 144 -107 229 -248 114 -189 155 -250 214 -315 31 -35 55
-69 53 -75 -5 -15 -87 -30 -269 -51 -171 -18 -228 -17 -238 5 -35 76 -33 74
-104 92 -89 21 -110 43 -135 138 -25 98 -61 311 -61 361 0 50 30 84 100 109
69 25 128 21 211 -16z"/>
<path d="M3094 6569 c-139 -73 -908 -613 -974 -683 -24 -27 -24 -27 -6 -61 25
-46 82 -84 150 -99 94 -22 185 -106 353 -326 211 -277 486 -679 503 -737 11
-36 10 -44 -14 -91 -14 -28 -26 -61 -26 -72 0 -27 47 -98 71 -105 27 -9 100
32 249 142 74 54 236 170 359 258 238 169 360 274 392 336 29 59 25 122 -15
204 -52 110 -85 129 -165 94 -28 -11 -56 -28 -63 -36 -8 -10 -13 -47 -13 -97
-1 -98 -13 -125 -99 -215 -100 -105 -253 -191 -339 -191 -71 0 -171 84 -254
212 -67 104 -96 175 -90 225 6 52 26 77 147 179 104 87 137 134 126 177 -7 29
-69 77 -101 77 -11 0 -65 -32 -120 -71 -168 -119 -232 -143 -289 -106 -34 22
-98 110 -147 202 -52 97 -61 163 -29 225 46 91 196 211 308 249 73 25 109 26
187 5 76 -19 118 -12 145 25 26 37 25 44 -9 116 -31 66 -108 158 -152 180 -26
14 -31 13 -85 -16z"/>
<path d="M11311 5923 c-25 -21 -28 -52 -11 -114 17 -59 3 -115 -49 -193 -92
-139 -809 -904 -869 -927 -13 -5 -61 -9 -107 -9 -81 0 -84 -1 -109 -31 -14
-17 -26 -40 -26 -52 0 -26 79 -104 210 -208 52 -42 119 -98 149 -125 l53 -49
-46 -69 c-39 -58 -44 -71 -34 -85 7 -9 66 -72 130 -141 721 -772 1168 -1642
1362 -2650 36 -184 76 -469 76 -535 l0 -35 115 0 115 0 0 48 c0 207 -87 706
-170 987 -63 210 -65 227 -47 292 9 32 18 91 21 131 8 113 18 132 274 520
l154 232 76 -5 c43 -3 154 -10 247 -16 177 -10 345 -32 405 -50 19 -7 86 -31
148 -56 136 -53 185 -56 190 -9 5 37 -27 124 -91 251 -64 128 -133 235 -151
235 -9 0 -51 -33 -95 -74 -57 -54 -91 -78 -122 -86 -69 -19 -412 5 -461 31
-10 6 -18 17 -18 25 0 34 187 289 291 397 l45 47 67 -2 c58 -1 71 2 106 27 23
15 41 29 41 31 0 11 -198 423 -224 467 -28 48 -34 52 -71 55 -22 1 -46 -2 -54
-7 -8 -5 -16 -38 -21 -82 -12 -116 -74 -255 -222 -500 -118 -197 -185 -250
-336 -269 -80 -10 -110 -9 -277 16 -318 47 -436 74 -530 124 -51 27 -89 40
-115 40 -59 0 -80 14 -145 102 -64 86 -311 374 -436 510 l-77 83 -10 120 c-12
145 -6 162 90 277 92 109 542 603 668 731 140 145 152 151 245 143 85 -8 139
8 150 44 6 18 -4 33 -51 82 -115 116 -394 348 -420 348 -7 0 -21 -8 -33 -17z
m703 -2823 c93 -6 177 -15 188 -21 29 -16 19 -61 -32 -145 -100 -164 -300
-404 -337 -404 -12 0 -179 344 -193 398 -19 72 10 167 52 175 42 8 152 7 322
-3z"/>
<path d="M5244 4944 c-18 -96 20 -240 82 -313 46 -54 40 -71 -24 -71 -79 0
-112 -10 -112 -32 0 -11 14 -50 30 -88 50 -115 38 -202 -51 -369 -22 -42 -70
-117 -105 -166 -86 -119 -106 -160 -107 -214 -1 -93 41 -121 180 -121 106 0
258 20 452 57 l144 28 100 -105 c226 -236 343 -439 527 -915 43 -111 87 -220
98 -241 52 -100 121 -166 190 -180 43 -9 42 9 -2 73 -45 66 -80 135 -104 210
-24 73 -38 173 -25 173 6 0 25 -30 43 -67 45 -94 105 -184 184 -278 36 -44 78
-103 92 -131 31 -64 170 -546 179 -623 13 -114 -29 -594 -54 -625 -13 -16 -86
-36 -127 -36 -15 0 -38 10 -50 21 -13 12 -29 19 -36 15 -7 -4 -24 -13 -38 -21
-28 -16 -205 -21 -229 -6 -8 5 -11 16 -6 30 11 37 -21 36 -75 -3 -27 -20 -53
-36 -56 -36 -3 0 -24 14 -46 31 l-39 32 -29 -32 c-16 -17 -38 -31 -49 -31 -36
0 -38 62 -3 103 14 16 13 17 -11 17 -15 0 -67 -18 -116 -40 -49 -22 -95 -40
-103 -40 -7 0 -22 -10 -32 -21 -15 -18 -26 -21 -72 -17 -33 3 -62 12 -74 23
-20 18 -22 18 -68 -4 -33 -15 -62 -21 -92 -19 -42 3 -45 5 -42 31 3 32 -9 34
-61 12 -55 -23 -93 -18 -161 20 -85 47 -89 46 -81 -15 4 -29 3 -50 -2 -50 -5
0 -24 18 -42 40 -17 22 -36 40 -40 40 -5 0 -14 -14 -20 -32 -35 -100 -103 -86
-117 24 -4 26 -9 48 -13 48 -3 0 -23 -27 -43 -60 -23 -38 -44 -60 -55 -60 -10
0 -47 23 -82 50 -84 66 -95 66 -88 -5 3 -35 2 -57 -5 -61 -19 -12 -65 51 -77
104 -19 90 -33 366 -29 563 l5 194 70 174 c39 95 76 178 82 184 5 5 40 11 76
13 76 4 168 40 210 84 24 25 26 34 21 72 -23 157 -15 261 25 327 15 24 27 31
66 36 84 11 96 16 135 54 47 47 50 81 11 109 -64 44 -123 51 -209 26 -60 -17
-48 -20 -160 40 -45 24 -141 39 -199 32 -65 -9 -140 -33 -155 -51 -15 -18 -85
-40 -177 -55 -52 -8 -90 -23 -137 -51 -112 -67 -148 -67 -509 1 -232 45 -310
49 -470 25 -214 -32 -315 -73 -440 -180 -165 -141 -189 -242 -191 -805 -1
-375 10 -433 72 -367 27 28 61 105 62 136 0 19 3 21 14 12 24 -20 37 -127 42
-336 6 -222 3 -235 -55 -270 -19 -11 -58 -42 -87 -69 -31 -28 -59 -46 -68 -43
-7 3 -27 25 -42 48 -16 23 -34 44 -40 46 -7 2 -45 -30 -86 -72 -73 -74 -101
-88 -126 -63 -17 17 -15 73 4 110 21 41 7 55 -34 34 -17 -9 -54 -16 -82 -16
-39 0 -52 -4 -56 -17 -22 -71 -117 -150 -215 -179 l-64 -19 65 -9 c36 -4 2142
-10 4680 -13 3559 -4 4658 -2 4802 8 179 11 221 21 140 34 -111 17 -132 33
-132 100 0 19 -7 52 -16 73 -15 38 -61 92 -76 92 -5 0 -6 -27 -2 -60 8 -74 -7
-80 -55 -20 -34 42 -61 52 -61 22 0 -27 -30 -111 -43 -119 -16 -10 -65 52 -77
99 -22 88 -24 89 -59 20 -17 -34 -34 -62 -38 -62 -3 0 -29 19 -57 43 -73 62
-97 77 -124 77 -21 0 -23 -3 -17 -22 4 -13 14 -53 23 -90 12 -55 13 -70 2 -83
-30 -36 -60 -1 -60 70 0 42 -9 48 -44 29 -40 -20 -59 -18 -87 12 -54 58 -79
53 -79 -17 0 -34 -23 -69 -46 -69 -6 0 -25 17 -43 37 -32 36 -34 36 -47 18 -8
-10 -14 -25 -14 -32 0 -23 -26 -14 -40 15 -16 35 -26 171 -45 612 -16 379 -22
420 -75 540 -18 41 -38 107 -43 147 -12 80 1 158 67 408 19 72 42 173 51 225
24 136 30 376 15 547 -7 79 -10 147 -6 150 11 11 44 -28 66 -80 32 -73 78
-264 91 -371 13 -119 13 -620 0 -762 -6 -61 -23 -178 -37 -260 -14 -82 -28
-205 -31 -272 l-6 -124 28 -22 c27 -22 28 -28 37 -142 8 -122 35 -345 44 -376
8 -26 17 -23 71 27 l50 44 -12 -71 -13 -72 43 45 c39 42 44 52 50 115 11 94
-2 404 -20 506 -8 46 -26 128 -40 183 -35 136 -51 294 -70 665 -26 535 -41
687 -77 800 -69 218 -203 396 -362 484 -147 82 -255 95 -1161 141 -256 13
-574 32 -1110 65 -88 6 -320 21 -515 35 -195 14 -393 27 -440 30 -251 16 -407
40 -528 81 -102 34 -333 150 -383 192 l-39 34 2 81 3 82 -70 5 c-79 6 -74 -4
-55 105 13 76 13 212 0 220 -5 3 -14 -14 -21 -37 -33 -122 -43 -144 -86 -187
l-43 -44 -118 6 c-145 7 -218 22 -259 53 -39 30 -100 148 -108 212 -13 92 -29
110 -41 46z m4686 -2471 c-17 -162 -9 -441 14 -508 9 -27 66 -149 127 -271
128 -255 128 -257 129 -529 l0 -169 -67 -68 c-37 -38 -75 -68 -84 -68 -9 0
-29 10 -44 22 -27 21 -28 21 -41 3 -8 -10 -14 -22 -14 -26 0 -11 -28 -19 -44
-13 -8 3 -16 15 -18 27 -3 19 -10 22 -45 22 -64 0 -77 19 -81 118 -5 110 22
235 103 486 l66 201 -48 148 c-48 146 -48 148 -48 282 1 120 4 149 34 265 35
135 60 209 68 201 3 -3 0 -58 -7 -123z m-1028 -48 c-2 -16 -25 -76 -52 -134
-100 -221 -101 -238 -20 -326 58 -62 67 -79 72 -140 4 -46 39 -45 90 0 36 33
45 37 80 32 53 -7 111 -47 155 -108 43 -61 72 -64 86 -9 13 51 34 70 78 70 49
0 65 -24 90 -126 38 -160 57 -551 31 -626 -15 -43 -54 -79 -123 -114 -62 -31
-83 -30 -107 3 -17 24 -22 26 -37 13 -9 -7 -25 -31 -36 -52 -11 -21 -23 -38
-28 -38 -21 0 -52 54 -46 78 21 83 20 86 -11 78 -56 -14 -194 -87 -210 -111
-25 -38 -97 -35 -153 6 l-42 30 -36 -31 c-31 -27 -41 -31 -86 -28 -48 3 -52 5
-51 28 1 14 5 34 9 44 8 17 5 19 -32 13 -32 -5 -46 -3 -66 13 -31 25 -49 26
-45 3 2 -15 -5 -18 -41 -18 -42 0 -47 -3 -74 -42 -16 -25 -36 -43 -47 -43 -28
0 -57 45 -65 101 l-7 51 -32 -58 c-46 -83 -54 -85 -118 -38 -102 78 -131 81
-126 17 3 -35 1 -37 -32 -45 -48 -10 -128 1 -167 23 -33 18 -33 18 -57 -6 -17
-17 -36 -25 -60 -25 -86 0 -106 28 -131 182 -37 231 -37 411 -1 578 19 84 34
215 42 364 l6 119 -48 -7 c-88 -13 -93 -16 -104 -55 -14 -54 -37 -309 -50
-546 -27 -538 -37 -635 -65 -635 -18 0 -22 85 -13 310 14 356 59 884 79 937
19 50 156 43 327 -18 529 -188 653 -215 801 -173 109 30 175 96 302 301 103
165 180 236 171 158z m-6046 -298 c22 -84 27 -368 8 -387 -34 -34 -63 114 -64
326 0 83 3 154 7 158 13 12 31 -23 49 -97z m565 -268 c198 -96 312 -127 518
-139 171 -10 189 -16 221 -79 49 -97 92 -343 94 -533 1 -138 -6 -152 -58 -124
-39 21 -56 15 -56 -19 0 -30 -18 -77 -33 -87 -19 -12 -56 -9 -89 8 -28 15 -35
15 -85 -1 -60 -19 -153 -16 -179 5 -9 8 -27 10 -51 5 -34 -6 -40 -4 -64 26
-23 28 -29 31 -42 20 -9 -7 -19 -25 -22 -41 -3 -15 -14 -35 -23 -43 -16 -14
-21 -14 -50 0 -39 19 -133 120 -170 182 -51 87 -104 362 -104 546 0 81 5 116
27 185 29 93 49 130 68 130 7 0 51 -18 98 -41z m-313 -714 c38 -92 37 -157 -1
-142 -16 6 -21 33 -31 151 -5 66 1 64 32 -9z m1376 13 c20 -96 15 -263 -8
-255 -17 6 -37 87 -38 162 -2 67 12 115 32 115 5 0 12 -10 14 -22z"/>
<path d="M786 4327 c-27 -28 -97 -161 -175 -339 -76 -172 -66 -228 36 -198 91
26 130 24 258 -15 300 -91 335 -137 260 -340 -44 -117 -143 -330 -185 -396
-61 -95 -122 -91 -355 22 -140 68 -191 126 -210 236 -7 46 -17 58 -57 68 -22
6 -33 1 -58 -24 -46 -46 -220 -413 -220 -464 0 -10 11 -29 25 -42 28 -29 77
-33 132 -10 45 19 76 19 143 -1 90 -27 720 -322 1003 -471 160 -83 171 -95
183 -174 3 -24 12 -65 20 -90 17 -54 15 -63 -56 -324 -72 -268 -158 -731 -178
-968 l-8 -97 117 0 117 0 7 63 c72 690 230 1250 515 1832 230 468 509 868 909
1305 68 74 130 150 138 168 18 43 2 74 -69 136 l-52 46 -34 -33 c-77 -73 -323
-340 -413 -447 -143 -171 -148 -175 -222 -176 -46 -1 -74 -8 -111 -28 -27 -14
-60 -26 -74 -26 -34 0 -293 118 -687 313 -401 198 -544 275 -562 304 -8 12
-18 50 -23 84 -9 65 -27 91 -67 104 -17 4 -29 0 -47 -18z m820 -868 c245 -115
385 -192 419 -229 27 -30 32 -130 10 -206 -24 -83 -119 -271 -170 -337 -85
-107 -148 -137 -238 -110 -64 19 -305 140 -386 194 -60 40 -81 74 -81 134 0
71 273 615 309 615 5 0 67 -27 137 -61z"/>
</g>
</svg>
