<?xml version="1.0" standalone="no"?>
<!DOCTYPE svg PUBLIC "-//W3C//DTD SVG 20010904//EN"
 "http://www.w3.org/TR/2001/REC-SVG-20010904/DTD/svg10.dtd">
<svg version="1.0" xmlns="http://www.w3.org/2000/svg"
 width="659.000000pt" height="659.000000pt" viewBox="0 0 659.000000 659.000000"
 preserveAspectRatio="xMidYMid meet">

<g transform="translate(0.000000,659.000000) scale(0.100000,-0.100000)"
fill="#000000" stroke="none">
<path d="M2630 6285 c-91 -13 -172 -24 -181 -24 -8 -1 -23 -7 -33 -14 -25 -18
-14 -48 24 -70 16 -10 34 -26 40 -37 5 -10 26 -117 45 -237 19 -120 40 -242
45 -272 17 -94 14 -125 -20 -154 -29 -26 -31 -44 -7 -74 6 -9 5 -14 -4 -18 -8
-2 -61 -21 -119 -41 -132 -45 -350 -143 -357 -160 -2 -7 7 -30 21 -52 l26 -41
102 48 c265 125 544 201 847 231 416 41 913 -50 1281 -235 105 -52 106 -52
130 -6 11 22 20 44 20 49 0 5 -60 38 -134 73 -74 35 -133 66 -131 70 3 3 28 9
57 12 157 19 301 175 343 373 46 218 -6 341 -180 423 -83 40 -331 132 -371
138 -29 5 -35 2 -45 -21 -10 -21 -9 -33 5 -65 16 -34 16 -46 6 -97 -24 -117
-139 -443 -177 -501 -8 -12 -30 -27 -48 -33 -36 -12 -45 -26 -45 -72 l0 -31
-52 6 c-219 26 -333 37 -396 37 l-72 0 6 39 c6 37 5 39 -32 57 -24 12 -59 45
-92 89 -29 39 -78 99 -110 134 -31 35 -59 68 -60 73 -2 5 16 30 41 56 54 59
71 106 64 182 -10 115 -83 180 -207 186 -36 2 -139 -8 -230 -21z m185 -86 c47
-13 101 -66 110 -110 16 -74 -22 -142 -104 -183 -110 -55 -134 -42 -156 84 -9
47 -20 105 -24 129 -8 39 -6 47 15 67 26 27 89 32 159 13z m1505 -135 c38 -20
85 -50 105 -67 31 -28 37 -40 45 -94 8 -61 0 -167 -18 -228 -29 -96 -98 -190
-161 -218 -85 -39 -259 -20 -278 29 -3 9 5 51 19 93 81 241 172 498 181 509
15 19 34 15 107 -24z m-1477 -268 c42 -17 75 -57 143 -172 30 -51 67 -102 82
-113 33 -24 30 -25 -100 -40 -128 -14 -125 -15 -132 14 -5 20 -15 26 -47 31
-47 8 -51 15 -74 128 -23 118 -21 134 18 151 41 18 69 18 110 1z"/>
<path d="M1406 5794 c-66 -47 -173 -122 -238 -166 -70 -49 -118 -88 -118 -98
0 -24 42 -60 71 -60 57 0 134 -87 321 -360 97 -142 104 -158 83 -186 -8 -10
-15 -26 -15 -35 0 -18 30 -49 48 -49 22 0 435 305 454 335 23 39 23 66 -2 116
-25 48 -40 55 -80 39 -27 -11 -36 -27 -30 -55 15 -77 -138 -215 -220 -199 -40
9 -89 58 -128 132 -40 76 -35 94 48 158 68 53 77 82 34 110 -24 16 -26 16 -52
-5 -54 -43 -116 -81 -135 -81 -44 0 -131 139 -120 192 11 54 131 148 189 148
18 0 44 -4 58 -10 32 -12 50 -5 66 25 12 22 9 29 -29 80 -29 38 -48 55 -64 55
-12 0 -76 -39 -141 -86z"/>
<path d="M5382 5554 c-6 -10 -5 -27 1 -44 20 -52 6 -74 -187 -285 -227 -249
-238 -258 -298 -248 -29 4 -38 1 -52 -18 -17 -24 -16 -25 41 -77 32 -29 77
-67 100 -85 23 -18 43 -36 43 -40 0 -5 -10 -22 -21 -39 l-22 -30 60 -61 c334
-346 556 -771 648 -1242 54 -271 60 -561 20 -862 -8 -57 -4 -61 70 -66 l29 -2
18 120 c27 172 20 576 -11 749 -24 128 -49 236 -76 329 -12 43 -14 62 -6 70 6
6 11 34 11 62 0 46 7 61 89 189 50 77 96 146 104 154 13 12 38 13 171 4 131
-9 165 -15 218 -37 141 -60 153 -45 79 102 -28 57 -58 106 -67 110 -9 3 -28
-9 -53 -36 l-38 -41 -74 1 c-94 1 -161 11 -166 25 -5 16 134 202 157 209 10 3
29 3 42 0 16 -4 29 0 41 13 16 18 15 24 -39 138 -31 65 -61 122 -67 125 -15
10 -46 -2 -50 -20 -3 -9 -5 -32 -6 -51 -1 -19 -15 -57 -32 -85 -16 -27 -41
-74 -55 -103 -35 -72 -89 -127 -142 -143 -34 -10 -59 -10 -130 0 -184 27 -247
41 -277 63 -17 12 -42 21 -60 20 -26 -1 -37 8 -93 81 -35 45 -96 118 -136 162
-72 78 -74 81 -80 143 -5 47 -3 70 7 86 21 31 385 428 408 444 11 7 38 12 65
10 35 -2 49 1 58 15 12 19 18 12 -126 140 -78 69 -100 79 -116 51z m426 -1330
c6 -2 12 -11 12 -20 0 -26 -161 -244 -180 -244 -13 0 -100 187 -100 214 0 14
9 35 19 45 18 18 30 19 128 15 59 -3 114 -7 121 -10z"/>
<path d="M2530 5073 c0 -47 33 -133 51 -133 5 0 9 -4 9 -10 0 -5 -18 -10 -39
-10 -51 0 -58 -12 -31 -57 17 -29 20 -46 15 -78 -5 -39 -62 -143 -120 -224
-31 -42 -31 -65 -4 -92 20 -20 29 -21 98 -16 42 3 116 13 164 23 l88 18 50
-50 c59 -57 122 -150 171 -249 34 -68 48 -103 102 -251 28 -76 64 -118 110
-130 26 -6 27 -5 17 14 -6 12 -16 24 -21 27 -19 12 -51 97 -56 148 -3 37 -2
45 4 27 19 -55 57 -118 102 -166 39 -44 50 -65 69 -135 13 -46 32 -114 43
-150 18 -61 19 -79 10 -208 -5 -79 -14 -147 -19 -152 -15 -15 -83 -24 -83 -10
0 6 -7 11 -15 11 -8 0 -15 -4 -15 -10 0 -6 -27 -10 -61 -10 -55 0 -61 2 -56
19 3 14 0 17 -14 14 -11 -3 -19 -9 -19 -13 0 -18 -34 -19 -52 -3 -19 17 -20
17 -29 0 -6 -9 -17 -17 -24 -17 -18 0 -20 31 -3 48 19 19 -12 15 -57 -8 -22
-11 -45 -20 -52 -20 -7 0 -13 -4 -13 -10 0 -14 -54 -12 -68 2 -10 10 -17 10
-32 0 -29 -18 -71 -16 -64 3 7 18 -6 19 -39 4 -19 -9 -31 -7 -61 10 -46 26
-46 26 -46 -6 l0 -28 -20 25 -19 25 -10 -28 c-15 -40 -44 -32 -52 13 l-5 35
-20 -32 c-23 -39 -28 -40 -66 -8 -39 33 -51 32 -43 -5 9 -40 -10 -39 -31 1
-20 39 -29 360 -11 394 6 11 23 52 37 90 l26 70 37 -3 c42 -3 91 19 107 48 8
14 8 31 -1 58 -15 50 8 136 37 138 47 3 55 5 74 24 29 29 25 49 -15 66 -29 12
-43 12 -75 3 -34 -10 -41 -9 -66 10 -41 32 -138 30 -184 -4 -22 -16 -47 -25
-72 -25 -25 0 -52 -9 -76 -25 -44 -30 -68 -31 -192 -5 -149 31 -196 33 -294
16 -97 -17 -141 -40 -206 -106 -49 -50 -58 -91 -64 -308 -4 -155 3 -232 21
-232 13 0 42 48 43 70 1 24 1 24 12 5 13 -22 24 -211 14 -249 -3 -13 -16 -28
-28 -32 -12 -4 -31 -17 -41 -30 -23 -30 -30 -30 -47 1 -18 33 -30 32 -63 -10
-15 -19 -35 -35 -43 -35 -21 0 -29 29 -15 52 16 26 8 33 -19 18 -11 -6 -30 -8
-40 -5 -13 4 -20 2 -20 -7 -1 -28 -61 -79 -103 -87 l-42 -9 50 -2 c28 -1 64
-4 80 -6 115 -12 333 -25 518 -31 119 -3 217 -9 217 -12 0 -3 -56 -62 -125
-131 l-125 -127 0 -186 0 -185 -37 -12 c-98 -31 -180 -108 -230 -216 -25 -52
-28 -71 -28 -159 0 -93 2 -105 33 -167 43 -88 106 -152 190 -191 62 -30 75
-32 172 -32 93 0 111 3 163 27 113 53 202 170 228 301 33 163 -77 362 -236
428 l-55 23 0 150 0 150 167 168 167 168 173 0 173 0 0 -608 0 -608 -57 -24
c-83 -34 -182 -135 -212 -214 -76 -203 9 -421 197 -509 152 -71 320 -45 443
70 173 162 170 420 -6 581 -30 28 -79 60 -110 73 l-55 23 0 608 0 608 332 0
332 0 -44 -46 c-25 -25 -73 -74 -108 -108 -92 -89 -92 -88 -92 -284 l0 -169
-74 -37 c-85 -42 -141 -98 -183 -185 -24 -49 -27 -68 -28 -156 0 -92 3 -105
32 -167 55 -116 147 -188 275 -214 66 -13 82 -13 146 0 218 45 359 270 298
478 -33 116 -152 242 -246 263 l-30 7 0 146 0 147 163 163 162 162 168 0 167
0 0 -587 0 -588 -58 -25 c-70 -30 -159 -116 -191 -184 -109 -234 27 -496 282
-547 76 -16 170 1 249 43 209 111 266 391 118 578 -36 46 -137 116 -180 125
l-30 7 2 586 3 587 165 3 164 3 168 -168 168 -168 0 -136 0 -136 -74 -37 c-86
-42 -145 -102 -185 -186 -23 -48 -26 -68 -26 -160 0 -96 3 -110 29 -165 75
-151 248 -244 404 -215 125 23 233 103 288 215 26 55 29 69 29 165 0 99 -2
109 -33 172 -46 94 -131 167 -234 201 -16 6 -18 24 -18 188 l0 182 -115 117
c-63 64 -115 119 -115 122 0 3 96 8 213 12 116 4 291 14 387 22 96 7 191 14
210 15 33 1 32 2 -15 12 -48 12 -50 14 -53 48 -2 24 -12 45 -29 60 l-25 24 7
-32 c8 -37 -8 -45 -25 -13 -11 21 -30 27 -30 11 0 -5 -5 -22 -10 -37 -10 -25
-12 -26 -26 -12 -9 9 -19 31 -23 49 l-7 34 -18 -33 -17 -33 -35 30 c-39 35
-71 42 -59 14 5 -10 10 -33 13 -50 3 -26 1 -33 -12 -33 -11 0 -16 9 -16 30 0
33 -3 35 -29 20 -14 -7 -23 -5 -36 10 -25 28 -35 25 -35 -10 0 -33 -19 -40
-40 -15 -7 8 -16 15 -21 15 -5 0 -9 -7 -9 -15 0 -8 -4 -15 -9 -15 -18 0 -31
120 -31 288 0 170 -1 175 -30 249 -36 90 -37 135 -6 239 44 146 57 280 42 414
-8 67 -7 73 7 61 19 -15 41 -81 58 -171 18 -91 15 -385 -5 -477 -8 -39 -18
-108 -22 -152 -6 -69 -5 -81 10 -87 11 -4 16 -18 16 -43 0 -39 21 -203 27
-210 1 -3 15 6 29 20 l26 24 -7 -35 -7 -35 24 23 c22 21 23 29 22 145 -1 97
-6 142 -27 222 -20 80 -27 134 -32 270 -13 351 -29 448 -88 542 -36 57 -111
119 -165 137 -63 21 -91 24 -432 41 -263 14 -553 32 -1040 66 -192 13 -249 27
-364 87 -76 40 -91 52 -88 70 8 72 10 67 -31 66 -35 -1 -38 1 -32 20 18 59 24
93 18 114 -8 34 -21 26 -28 -20 -4 -23 -18 -52 -32 -65 -22 -23 -28 -24 -101
-17 -42 4 -87 13 -99 21 -24 16 -53 80 -53 118 0 14 -4 25 -10 25 -5 0 -10
-21 -10 -47z m2217 -1085 c-3 -8 -6 -5 -6 6 -1 11 2 17 5 13 3 -3 4 -12 1 -19z
m-12 -150 l0 -133 65 -125 65 -125 0 -107 0 -107 -35 -36 c-31 -32 -35 -34
-52 -19 -16 15 -18 15 -24 0 -8 -21 -34 -21 -34 0 0 11 -5 14 -16 10 -58 -22
-59 85 -4 253 l40 122 -26 85 c-21 68 -26 97 -21 147 5 53 32 167 40 167 2 0
3 -60 2 -132z m-499 25 c-18 -38 -37 -83 -41 -101 -6 -29 -3 -36 29 -65 26
-25 34 -38 29 -55 -8 -32 26 -43 45 -14 8 12 21 22 29 22 27 0 72 -30 79 -52
13 -43 44 -46 44 -4 0 26 36 42 56 25 20 -16 36 -99 41 -220 7 -133 1 -149
-59 -180 -40 -20 -42 -20 -55 -3 -14 19 -15 19 -33 -15 -10 -20 -14 -21 -26
-9 -11 11 -12 21 -5 41 13 33 0 35 -47 7 -18 -11 -39 -20 -47 -20 -8 0 -15 -7
-15 -15 0 -21 -49 -19 -73 2 -18 17 -19 17 -32 0 -13 -18 -60 -23 -70 -8 -3 5
2 17 11 26 15 15 14 15 -10 9 -16 -4 -32 -1 -42 7 -12 10 -17 10 -23 1 -4 -7
-14 -10 -23 -7 -9 4 -19 -3 -26 -20 -16 -34 -46 -30 -50 8 -3 24 -22 40 -22
19 0 -5 -6 -17 -14 -27 -13 -17 -15 -17 -48 8 -43 33 -60 35 -53 4 6 -21 3
-23 -37 -24 -26 -1 -49 4 -59 13 -15 13 -17 13 -22 -1 -9 -21 -64 -20 -76 3
-26 49 -40 258 -21 322 6 19 15 80 20 134 10 101 7 115 -26 116 -44 0 -56 -72
-69 -400 -7 -164 -10 -190 -27 -190 -10 0 -6 141 13 414 12 177 14 186 48 188
54 3 88 -5 169 -39 166 -68 301 -89 364 -57 39 20 58 42 104 119 42 70 72 105
91 105 9 0 3 -21 -21 -67z m-2827 -95 c13 -55 14 -157 2 -176 -14 -22 -31 67
-31 159 0 89 10 94 29 17z m279 -128 c72 -38 158 -59 243 -60 74 0 81 -5 104
-69 22 -64 42 -258 27 -273 -8 -8 -15 -8 -27 2 -8 7 -15 11 -16 9 0 -2 -2 -12
-4 -22 -9 -47 -35 -63 -62 -36 -7 7 -17 8 -25 3 -18 -12 -98 -14 -98 -3 0 5
-11 7 -24 3 -16 -4 -25 -1 -29 10 -9 24 -24 19 -31 -9 -9 -35 -25 -31 -73 14
-82 79 -119 317 -67 428 9 18 18 33 20 33 2 0 30 -14 62 -30z m-148 -378 c0
-15 -5 -22 -12 -20 -8 3 -14 25 -15 54 l-2 49 14 -30 c8 -16 14 -40 15 -53z
m640 -3 c0 -41 -4 -68 -9 -64 -13 8 -25 88 -16 114 13 42 25 19 25 -50z m1089
-1009 c88 -44 125 -162 79 -249 -35 -69 -86 -104 -157 -109 -116 -8 -200 60
-209 172 -13 158 143 260 287 186z m1701 5 c69 -36 117 -134 101 -206 -23
-102 -93 -159 -196 -159 -169 0 -250 215 -126 334 56 54 152 67 221 31z
m-3237 -16 c74 -20 146 -111 147 -184 0 -93 -59 -176 -146 -201 -132 -38 -254
55 -254 195 0 135 122 227 253 190z m2384 -549 c29 -13 52 -34 74 -67 28 -44
30 -54 27 -115 -3 -57 -8 -73 -34 -104 -104 -129 -298 -92 -345 67 -24 85 26
188 109 225 42 19 122 16 169 -6z m-1500 -35 c61 -18 129 -87 139 -142 16 -86
-15 -166 -81 -212 -73 -50 -151 -50 -228 -1 -141 89 -100 321 64 360 49 12 50
11 106 -5z"/>
<path d="M423 4808 c-23 -30 -102 -229 -97 -243 7 -18 17 -19 59 -4 26 10 45
7 118 -15 98 -30 127 -52 127 -96 0 -32 -89 -231 -117 -262 -24 -26 -54 -22
-138 17 -81 39 -115 73 -115 116 0 22 -6 30 -25 35 -14 4 -28 5 -30 2 -13 -13
-105 -212 -105 -227 0 -33 27 -46 64 -33 61 22 49 27 431 -158 94 -45 178 -89
188 -97 9 -9 17 -29 17 -45 0 -16 5 -38 10 -48 8 -14 4 -42 -15 -107 -34 -116
-59 -232 -82 -373 -33 -212 -17 -770 24 -811 9 -9 81 5 93 18 4 4 2 46 -6 93
-7 47 -16 159 -20 250 -28 660 218 1306 685 1799 l70 74 -19 27 c-43 60 -45
60 -121 -16 -38 -38 -102 -108 -142 -157 -66 -80 -74 -87 -100 -81 -18 4 -37
0 -52 -10 -13 -9 -34 -16 -46 -16 -24 0 -563 265 -579 285 -6 7 -12 26 -14 42
-1 17 -6 35 -10 42 -10 15 -41 14 -53 -1z m460 -438 c69 -33 131 -68 137 -79
20 -39 11 -90 -35 -180 -46 -93 -86 -131 -137 -131 -25 0 -189 80 -220 108
-10 8 -18 27 -18 43 0 39 125 296 146 299 1 0 58 -27 127 -60z"/>
<path d="M993 1809 c-24 -11 -43 -22 -43 -25 0 -10 54 -112 103 -194 350 -586
933 -1018 1598 -1184 109 -28 262 -56 267 -51 2 2 8 22 13 45 12 54 3 66 -64
73 -105 13 -333 75 -487 134 -115 43 -342 160 -450 231 -344 225 -646 550
-831 896 -28 53 -54 96 -57 96 -4 -1 -26 -10 -49 -21z"/>
<path d="M5493 1818 c-6 -7 -29 -49 -53 -93 -70 -129 -191 -302 -294 -422
-312 -362 -707 -621 -1161 -758 -100 -30 -282 -71 -345 -77 -23 -3 -25 -6 -22
-53 1 -27 6 -52 10 -56 4 -4 61 3 127 16 651 126 1212 483 1611 1025 79 107
224 352 224 379 0 6 -18 20 -40 31 -46 24 -45 23 -57 8z"/>
</g>
</svg>
